<svg xmlns="http://www.w3.org/2000/svg" xml:space="preserve" width="2000" height="1500" data-id="lg_Io2k65YDzWVVFKrT8h" data-version="1" viewBox="0 0 2000 1500"><path fill="#111" stroke="transparent" d="M0 0h2000v1500H0z"/><g data-padding="20"><g transform="translate(-992.397 -736.052)scale(1.92902)"><rect width="482.195" height="559.35" x="391.26" y="90.523" fill="none" rx="0" ry="0" transform="translate(400.5 400.17)"/><path fill="#fff" d="M892.647 554.128v350.95q0 23.76-29.7 23.76-29.21 0-29.21-23.76v-350.95q0-23.76 29.21-23.76 29.7 0 29.7 23.76m186.61 322.24h67.32q18.32 0 25.74-10.39 7.43-10.4 7.43-23.27v-226.71q0-12.37-7.43-22.77-7.42-10.39-25.74-10.39h-115.83l-.49 322.74q0 10.89-8.42 17.32-8.41 6.44-20.79 6.44-29.2 0-29.2-23.76v-343.04q0-17.82 9.16-23.76 9.15-5.94 22.02-5.94h155.93q12.87 0 26.73 5.45 13.86 5.44 26.73 13.86h-.5q12.87 9.4 19.8 24.5t6.93 34.9v235.12q0 40.1-26.73 59.9-12.87 9.4-26.48 14.6t-26.48 5.2h-83.16q-8.42 0-13.12-6.93t-4.7-18.32q0-24.75 21.28-24.75"/></g><path fill="transparent" stroke="transparent" stroke-width="2.013" d="M514.982 187.5h970.036v1125H514.982z"/></g></svg>