<svg width="151" height="30" viewBox="0 0 151 30" fill="none" xmlns="http://www.w3.org/2000/svg">
<path d="M13.9009 29.4524H0V27.2143L2.78018 27C3.05417 26.9683 3.27981 26.873 3.45709 26.7143C3.6505 26.5397 3.7472 26.3095 3.7472 26.0238V3.42857C3.7472 3.14286 3.6505 2.9127 3.45709 2.7381C3.27981 2.56349 3.05417 2.46825 2.78018 2.45238L0 2.2381V0H13.9009V2.2381L11.1449 2.45238C10.9031 2.46825 10.6694 2.56349 10.4438 2.7381C10.2343 2.9127 10.1295 3.14286 10.1295 3.42857V26.0238C10.1295 26.3095 10.2343 26.5397 10.4438 26.7143C10.6694 26.873 10.9031 26.9683 11.1449 27L13.9009 27.2143V29.4524Z" fill="white"/>
<path d="M54.1047 29.4524H43.1774V27.4048L44.5796 27.2619C44.8536 27.2302 45.0873 27.119 45.2807 26.9286C45.4902 26.7381 45.5949 26.5079 45.5949 26.2381V15.6667C45.5949 14.5873 45.321 13.6349 44.773 12.8095C44.225 11.9683 43.2096 11.5476 41.7269 11.5476C41.0338 11.5476 40.3569 11.627 39.6961 11.7857C39.0353 11.9444 38.5196 12.0952 38.1489 12.2381V26.2381C38.1489 26.8571 38.4793 27.1984 39.1401 27.2619L40.5423 27.4048V29.4524H29.8325V27.4048L31.1864 27.2619C31.4603 27.2302 31.694 27.119 31.8874 26.9286C32.097 26.7381 32.2017 26.5079 32.2017 26.2381V15.6667C32.2017 14.5873 31.9036 13.6349 31.3072 12.8095C30.727 11.9683 29.7439 11.5476 28.3578 11.5476C27.4714 11.5476 26.7139 11.627 26.0853 11.7857C25.4568 11.9444 25.0136 12.0952 24.7557 12.2381V26.2381C24.7557 26.5079 24.8604 26.7381 25.07 26.9286C25.2795 27.119 25.5132 27.2302 25.7711 27.2619L27.1491 27.4048V29.4524H16.1734V27.4048L17.8415 27.2619C18.1155 27.2302 18.3411 27.119 18.5184 26.9286C18.7118 26.7381 18.8085 26.5079 18.8085 26.2381V11.5476H15.9558V9.7381L22.5074 7.5H24.7557V10.1905C25.3037 9.79365 25.9886 9.38889 26.8106 8.97619C27.6326 8.56349 28.5029 8.21429 29.4215 7.92857C30.3402 7.64286 31.2186 7.5 32.0567 7.5C33.1849 7.5 34.0955 7.68254 34.7885 8.04762C35.4815 8.4127 36.0295 8.83333 36.4324 9.30952C36.8354 9.76984 37.1738 10.1667 37.4478 10.5C38.0925 10.0714 38.8661 9.62698 39.7687 9.16667C40.6873 8.70635 41.6382 8.31746 42.6214 8C43.6206 7.66667 44.5393 7.5 45.3774 7.5C46.7312 7.5 47.811 7.74603 48.6169 8.2381C49.4388 8.73016 50.0593 9.34921 50.4784 10.0952C50.8974 10.8254 51.1714 11.5714 51.3004 12.3333C51.4454 13.0794 51.5179 13.7063 51.5179 14.2143V26.2381C51.5179 26.5079 51.6146 26.7381 51.808 26.9286C52.0176 27.119 52.2513 27.2302 52.5091 27.2619L54.1047 27.4048V29.4524Z" fill="white"/>
<path d="M79.2472 29.4524H70.955L70.3748 27.2619C69.8268 27.6429 69.1257 28.0476 68.2715 28.4762C67.4335 28.9048 66.5228 29.2698 65.5397 29.5714C64.5566 29.8571 63.5896 30 62.6386 30C61.027 30 59.6489 29.4841 58.5046 28.4524C57.3603 27.4206 56.7882 26.0397 56.7882 24.3095C56.7882 23.3254 56.9332 22.4524 57.2233 21.6905C57.5134 20.9127 58.1098 20.2063 59.0123 19.5714C59.931 18.9206 61.3009 18.2937 63.1222 17.6905C64.9434 17.0714 67.3851 16.4286 70.4473 15.7619V14.0476C70.4473 13.4921 70.3426 12.8968 70.133 12.2619C69.9396 11.627 69.5448 11.0873 68.9484 10.6429C68.3682 10.1984 67.4818 9.97619 66.2891 9.97619C65.8379 9.97619 65.443 10 65.1045 10.0476C64.7661 10.0794 64.5243 10.1111 64.3793 10.1429V14.3095H59.7859C59.3508 14.3095 58.9076 14.2143 58.4563 14.0238C58.005 13.8175 57.7794 13.3889 57.7794 12.7381C57.7794 11.6429 58.279 10.7063 59.2783 9.92857C60.2775 9.15079 61.5346 8.55556 63.0496 8.14286C64.5807 7.71429 66.128 7.5 67.6913 7.5C69.4158 7.5 70.9228 7.68254 72.2121 8.04762C73.5015 8.4127 74.5088 9.13492 75.2341 10.2143C75.9593 11.2778 76.322 12.8651 76.322 14.9762V26.2381C76.322 26.5079 76.4187 26.7381 76.6121 26.9286C76.8055 27.119 77.0311 27.2302 77.289 27.2619L79.2472 27.4048V29.4524ZM70.3748 25.381V18.1429C68.4569 18.5238 66.9661 18.9286 65.9023 19.3571C64.8547 19.7857 64.1214 20.2937 63.7024 20.881C63.2994 21.4683 63.098 22.2063 63.098 23.0952C63.098 23.9841 63.3961 24.754 63.9925 25.4048C64.5888 26.0397 65.3544 26.3571 66.2891 26.3571C66.9983 26.3571 67.7397 26.246 68.5133 26.0238C69.2869 25.8016 69.9074 25.5873 70.3748 25.381Z" fill="white"/>
<path d="M119.137 29.4524H108.209V27.4048L109.612 27.2619C109.886 27.2302 110.119 27.119 110.313 26.9286C110.522 26.7381 110.627 26.5079 110.627 26.2381V15.6667C110.627 14.5873 110.353 13.6349 109.805 12.8095C109.257 11.9683 108.242 11.5476 106.759 11.5476C106.066 11.5476 105.389 11.627 104.728 11.7857C104.067 11.9444 103.552 12.0952 103.181 12.2381V26.2381C103.181 26.8571 103.511 27.1984 104.172 27.2619L105.574 27.4048V29.4524H94.8646V27.4048L96.2184 27.2619C96.4924 27.2302 96.7261 27.119 96.9195 26.9286C97.129 26.7381 97.2337 26.5079 97.2337 26.2381V15.6667C97.2337 14.5873 96.9356 13.6349 96.3393 12.8095C95.759 11.9683 94.7759 11.5476 93.3898 11.5476C92.5034 11.5476 91.7459 11.627 91.1174 11.7857C90.4888 11.9444 90.0456 12.0952 89.7877 12.2381V26.2381C89.7877 26.5079 89.8925 26.7381 90.102 26.9286C90.3115 27.119 90.5452 27.2302 90.8031 27.2619L92.1811 27.4048V29.4524H81.2054V27.4048L82.8735 27.2619C83.1475 27.2302 83.3731 27.119 83.5504 26.9286C83.7438 26.7381 83.8405 26.5079 83.8405 26.2381V11.5476H80.9878V9.7381L87.5394 7.5H89.7877V10.1905C90.3357 9.79365 91.0207 9.38889 91.8426 8.97619C92.6646 8.56349 93.5349 8.21429 94.4536 7.92857C95.3722 7.64286 96.2506 7.5 97.0887 7.5C98.2169 7.5 99.1275 7.68254 99.8205 8.04762C100.514 8.4127 101.062 8.83333 101.464 9.30952C101.867 9.76984 102.206 10.1667 102.48 10.5C103.125 10.0714 103.898 9.62698 104.801 9.16667C105.719 8.70635 106.67 8.31746 107.653 8C108.653 7.66667 109.571 7.5 110.409 7.5C111.763 7.5 112.843 7.74603 113.649 8.2381C114.471 8.73016 115.091 9.34921 115.51 10.0952C115.929 10.8254 116.203 11.5714 116.332 12.3333C116.477 13.0794 116.55 13.7063 116.55 14.2143V26.2381C116.55 26.5079 116.647 26.7381 116.84 26.9286C117.05 27.119 117.283 27.2302 117.541 27.2619L119.137 27.4048V29.4524Z" fill="white"/>
<path d="M151 14.4048C151 17.754 150.355 20.5476 149.066 22.7857C147.793 25.0079 145.988 26.6746 143.651 27.7857C141.33 28.8968 138.598 29.4524 135.455 29.4524H121.554V27.2143L123.996 27C124.27 26.9683 124.512 26.873 124.721 26.7143C124.931 26.5397 125.036 26.3095 125.036 26.0238V3.42857C125.036 3.14286 124.931 2.92063 124.721 2.7619C124.512 2.5873 124.27 2.48413 123.996 2.45238L121.554 2.2381V0H135.189C138.574 0 141.443 0.603175 143.796 1.80952C146.149 3.01587 147.938 4.70635 149.163 6.88095C150.388 9.03968 151 11.5476 151 14.4048ZM143.82 14.881C143.82 12.3571 143.538 10.2937 142.974 8.69048C142.41 7.07143 141.66 5.8254 140.725 4.95238C139.791 4.06349 138.751 3.44444 137.607 3.09524C136.479 2.74603 135.342 2.57143 134.198 2.57143H131.394V26.8571L135.093 26.7857C136.06 26.754 137.051 26.5556 138.066 26.1905C139.081 25.8254 140.024 25.2063 140.895 24.3333C141.765 23.4444 142.466 22.2381 142.998 20.7143C143.546 19.1746 143.82 17.2302 143.82 14.881Z" fill="white"/>
</svg>
